<?xml version="1.0" encoding="utf-8" ?>
<svg baseProfile="full" height="106mm" version="1.1" viewBox="0 0 744.094470 375.590540" width="210mm" xmlns="http://www.w3.org/2000/svg" xmlns:ev="http://www.w3.org/2001/xml-events" xmlns:xlink="http://www.w3.org/1999/xlink"><defs /><rect fill="white" height="100%" width="100%" x="0" y="0" /><g><text font-family="Arial,Helvetica" font-size="12" font-weight="bold" x="17.71654" y="38.97638">Receipt</text><text font-family="Arial,Helvetica" font-size="8" font-weight="bold" x="17.71654" y="56.69291">Account / Payable to</text><text font-family="Arial,Helvetica" font-size="10" x="17.71654" y="69.09449">CH62 0900 0000 0000 0000 0</text><text font-family="Arial,Helvetica" font-size="10" x="17.71654" y="81.49606">My Parking Garage</text><text font-family="Arial,Helvetica" font-size="10" x="17.71654" y="93.89764">Parking Street 1</text><text font-family="Arial,Helvetica" font-size="10" x="17.71654" y="106.29921">1000 City</text><text font-family="Arial,Helvetica" font-size="8" font-weight="bold" x="17.71654" y="122.24409">Payable by</text><text font-family="Arial,Helvetica" font-size="10" x="17.71654" y="134.64567">John Doe</text><text font-family="Arial,Helvetica" font-size="10" x="17.71654" y="147.04724">Underground Parking</text><text font-family="Arial,Helvetica" font-size="10" x="17.71654" y="159.44881">Switzerland</text><text font-family="Arial,Helvetica" font-size="8" font-weight="bold" x="17.71654" y="258.66141">Currency</text><text font-family="Arial,Helvetica" font-size="8" font-weight="bold" x="60.23622" y="258.66141">Amount</text><text font-family="Arial,Helvetica" font-size="10" x="17.71654" y="276.37795">CHF</text><text font-family="Arial,Helvetica" font-size="10" x="60.23622" y="276.37795">15.50</text><text font-family="Arial,Helvetica" font-size="8" font-weight="bold" text-anchor="end" x="201.96849" y="308.26771">Acceptance point</text><line fill="none" stroke="black" stroke-dasharray="2 2" x1="0" x2="744.09447" y1="4.04291" y2="4.04291" /><path d="m 0.764814,4.283977 c 0.337358,0.143009 0.862476,-0.115279 0.775145,-0.523225 -0.145918,-0.497473 -0.970289,-0.497475 -1.116209,-2e-6 -0.0636,0.23988 0.128719,0.447618 0.341064,0.523227 z m 3.875732,-1.917196 c 1.069702,0.434082 2.139405,0.868164 3.209107,1.302246 -0.295734,0.396158 -0.866482,0.368049 -1.293405,0.239509 -0.876475,-0.260334 -1.71099,-0.639564 -2.563602,-0.966653 -0.132426,-0.04295 -0.265139,-0.124595 -0.397393,-0.144327 -0.549814,0.22297 -1.09134,0.477143 -1.667719,0.62213 -0.07324,0.232838 0.150307,0.589809 -0.07687,0.842328 -0.311347,0.532157 -1.113542,0.624698 -1.561273,0.213165 -0.384914,-0.301216 -0.379442,-0.940948 7e-6,-1.245402 0.216628,-0.191603 0.506973,-0.286636 0.794095,-0.258382 0.496639,0.01219 1.013014,-0.04849 1.453829,-0.289388 0.437126,-0.238777 0.07006,-0.726966 -0.300853,-0.765416 -0.420775,-0.157424 -0.870816,-0.155853 -1.312747,-0.158623 -0.527075,-0.0016 -1.039244,-0.509731 -0.904342,-1.051293 0.137956,-0.620793 0.952738,-0.891064 1.47649,-0.573851 0.371484,0.188118 0.594679,0.675747 0.390321,1.062196 0.09829,0.262762 0.586716,0.204086 0.826177,0.378204 0.301582,0.119237 0.600056,0.246109 0.899816,0.36981 0.89919,-0.349142 1.785653,-0.732692 2.698347,-1.045565 0.459138,-0.152333 1.033472,-0.283325 1.442046,0.05643 0.217451,0.135635 -0.06954,0.160294 -0.174725,0.220936 -0.979101,0.397316 -1.958202,0.794633 -2.937303,1.19195 z m -3.44165,-1.917196 c -0.338434,-0.14399 -0.861225,0.116943 -0.775146,0.524517 0.143274,0.477916 0.915235,0.499056 1.10329,0.04328 0.09674,-0.247849 -0.09989,-0.490324 -0.328144,-0.567796 z" style="fill:#000000;fill-opacity:1;fill-rule:nonzero;stroke:none" transform="scale(1.9) translate(24,0)" /><line fill="none" stroke="black" stroke-dasharray="2 2" x1="219.68503" x2="219.68503" y1="3.54331" y2="372.04724" /><path d="m 0.764814,4.283977 c 0.337358,0.143009 0.862476,-0.115279 0.775145,-0.523225 -0.145918,-0.497473 -0.970289,-0.497475 -1.116209,-2e-6 -0.0636,0.23988 0.128719,0.447618 0.341064,0.523227 z m 3.875732,-1.917196 c 1.069702,0.434082 2.139405,0.868164 3.209107,1.302246 -0.295734,0.396158 -0.866482,0.368049 -1.293405,0.239509 -0.876475,-0.260334 -1.71099,-0.639564 -2.563602,-0.966653 -0.132426,-0.04295 -0.265139,-0.124595 -0.397393,-0.144327 -0.549814,0.22297 -1.09134,0.477143 -1.667719,0.62213 -0.07324,0.232838 0.150307,0.589809 -0.07687,0.842328 -0.311347,0.532157 -1.113542,0.624698 -1.561273,0.213165 -0.384914,-0.301216 -0.379442,-0.940948 7e-6,-1.245402 0.216628,-0.191603 0.506973,-0.286636 0.794095,-0.258382 0.496639,0.01219 1.013014,-0.04849 1.453829,-0.289388 0.437126,-0.238777 0.07006,-0.726966 -0.300853,-0.765416 -0.420775,-0.157424 -0.870816,-0.155853 -1.312747,-0.158623 -0.527075,-0.0016 -1.039244,-0.509731 -0.904342,-1.051293 0.137956,-0.620793 0.952738,-0.891064 1.47649,-0.573851 0.371484,0.188118 0.594679,0.675747 0.390321,1.062196 0.09829,0.262762 0.586716,0.204086 0.826177,0.378204 0.301582,0.119237 0.600056,0.246109 0.899816,0.36981 0.89919,-0.349142 1.785653,-0.732692 2.698347,-1.045565 0.459138,-0.152333 1.033472,-0.283325 1.442046,0.05643 0.217451,0.135635 -0.06954,0.160294 -0.174725,0.220936 -0.979101,0.397316 -1.958202,0.794633 -2.937303,1.19195 z m -3.44165,-1.917196 c -0.338434,-0.14399 -0.861225,0.116943 -0.775146,0.524517 0.143274,0.477916 0.915235,0.499056 1.10329,0.04328 0.09674,-0.247849 -0.09989,-0.490324 -0.328144,-0.567796 z" style="fill:#000000;fill-opacity:1;fill-rule:nonzero;stroke:none" transform="scale(1.9) translate(118,40) rotate(90)" /><text font-family="Arial,Helvetica" font-size="12" font-weight="bold" x="237.40157" y="38.97638">Payment part</text><path d="M0,0H1V1H0zM1,0H2V1H1zM2,0H3V1H2zM3,0H4V1H3zM4,0H5V1H4zM5,0H6V1H5zM6,0H7V1H6zM9,0H10V1H9zM11,0H12V1H11zM13,0H14V1H13zM15,0H16V1H15zM16,0H17V1H16zM17,0H18V1H17zM18,0H19V1H18zM19,0H20V1H19zM22,0H23V1H22zM26,0H27V1H26zM27,0H28V1H27zM28,0H29V1H28zM29,0H30V1H29zM30,0H31V1H30zM31,0H32V1H31zM32,0H33V1H32zM34,0H35V1H34zM35,0H36V1H35zM36,0H37V1H36zM37,0H38V1H37zM38,0H39V1H38zM39,0H40V1H39zM41,0H42V1H41zM43,0H44V1H43zM44,0H45V1H44zM45,0H46V1H45zM46,0H47V1H46zM47,0H48V1H47zM50,0H51V1H50zM51,0H52V1H51zM52,0H53V1H52zM53,0H54V1H53zM54,0H55V1H54zM55,0H56V1H55zM56,0H57V1H56zM0,1H1V2H0zM6,1H7V2H6zM8,1H9V2H8zM9,1H10V2H9zM12,1H13V2H12zM13,1H14V2H13zM15,1H16V2H15zM18,1H19V2H18zM19,1H20V2H19zM21,1H22V2H21zM24,1H25V2H24zM26,1H27V2H26zM30,1H31V2H30zM32,1H33V2H32zM34,1H35V2H34zM35,1H36V2H35zM37,1H38V2H37zM43,1H44V2H43zM47,1H48V2H47zM50,1H51V2H50zM56,1H57V2H56zM0,2H1V3H0zM2,2H3V3H2zM3,2H4V3H3zM4,2H5V3H4zM6,2H7V3H6zM8,2H9V3H8zM10,2H11V3H10zM13,2H14V3H13zM14,2H15V3H14zM16,2H17V3H16zM19,2H20V3H19zM21,2H22V3H21zM24,2H25V3H24zM25,2H26V3H25zM31,2H32V3H31zM36,2H37V3H36zM38,2H39V3H38zM41,2H42V3H41zM42,2H43V3H42zM44,2H45V3H44zM45,2H46V3H45zM46,2H47V3H46zM47,2H48V3H47zM50,2H51V3H50zM52,2H53V3H52zM53,2H54V3H53zM54,2H55V3H54zM56,2H57V3H56zM0,3H1V4H0zM2,3H3V4H2zM3,3H4V4H3zM4,3H5V4H4zM6,3H7V4H6zM8,3H9V4H8zM10,3H11V4H10zM11,3H12V4H11zM12,3H13V4H12zM13,3H14V4H13zM16,3H17V4H16zM17,3H18V4H17zM22,3H23V4H22zM23,3H24V4H23zM32,3H33V4H32zM34,3H35V4H34zM35,3H36V4H35zM37,3H38V4H37zM38,3H39V4H38zM39,3H40V4H39zM42,3H43V4H42zM44,3H45V4H44zM47,3H48V4H47zM50,3H51V4H50zM52,3H53V4H52zM53,3H54V4H53zM54,3H55V4H54zM56,3H57V4H56zM0,4H1V5H0zM2,4H3V5H2zM3,4H4V5H3zM4,4H5V5H4zM6,4H7V5H6zM11,4H12V5H11zM13,4H14V5H13zM18,4H19V5H18zM20,4H21V5H20zM23,4H24V5H23zM26,4H27V5H26zM27,4H28V5H27zM28,4H29V5H28zM29,4H30V5H29zM30,4H31V5H30zM31,4H32V5H31zM33,4H34V5H33zM34,4H35V5H34zM36,4H37V5H36zM39,4H40V5H39zM42,4H43V5H42zM44,4H45V5H44zM45,4H46V5H45zM47,4H48V5H47zM50,4H51V5H50zM52,4H53V5H52zM53,4H54V5H53zM54,4H55V5H54zM56,4H57V5H56zM0,5H1V6H0zM6,5H7V6H6zM11,5H12V6H11zM16,5H17V6H16zM18,5H19V6H18zM24,5H25V6H24zM26,5H27V6H26zM30,5H31V6H30zM34,5H35V6H34zM35,5H36V6H35zM36,5H37V6H36zM39,5H40V6H39zM41,5H42V6H41zM42,5H43V6H42zM44,5H45V6H44zM45,5H46V6H45zM46,5H47V6H46zM50,5H51V6H50zM56,5H57V6H56zM0,6H1V7H0zM1,6H2V7H1zM2,6H3V7H2zM3,6H4V7H3zM4,6H5V7H4zM5,6H6V7H5zM6,6H7V7H6zM8,6H9V7H8zM10,6H11V7H10zM12,6H13V7H12zM14,6H15V7H14zM16,6H17V7H16zM18,6H19V7H18zM20,6H21V7H20zM22,6H23V7H22zM24,6H25V7H24zM26,6H27V7H26zM28,6H29V7H28zM30,6H31V7H30zM32,6H33V7H32zM34,6H35V7H34zM36,6H37V7H36zM38,6H39V7H38zM40,6H41V7H40zM42,6H43V7H42zM44,6H45V7H44zM46,6H47V7H46zM48,6H49V7H48zM50,6H51V7H50zM51,6H52V7H51zM52,6H53V7H52zM53,6H54V7H53zM54,6H55V7H54zM55,6H56V7H55zM56,6H57V7H56zM8,7H9V8H8zM10,7H11V8H10zM11,7H12V8H11zM12,7H13V8H12zM13,7H14V8H13zM14,7H15V8H14zM16,7H17V8H16zM19,7H20V8H19zM21,7H22V8H21zM26,7H27V8H26zM30,7H31V8H30zM33,7H34V8H33zM34,7H35V8H34zM36,7H37V8H36zM37,7H38V8H37zM38,7H39V8H38zM39,7H40V8H39zM41,7H42V8H41zM43,7H44V8H43zM47,7H48V8H47zM48,7H49V8H48zM0,8H1V9H0zM6,8H7V9H6zM8,8H9V9H8zM9,8H10V9H9zM11,8H12V9H11zM13,8H14V9H13zM14,8H15V9H14zM16,8H17V9H16zM17,8H18V9H17zM19,8H20V9H19zM20,8H21V9H20zM21,8H22V9H21zM24,8H25V9H24zM25,8H26V9H25zM26,8H27V9H26zM27,8H28V9H27zM28,8H29V9H28zM29,8H30V9H29zM30,8H31V9H30zM31,8H32V9H31zM32,8H33V9H32zM33,8H34V9H33zM34,8H35V9H34zM36,8H37V9H36zM39,8H40V9H39zM42,8H43V9H42zM43,8H44V9H43zM44,8H45V9H44zM45,8H46V9H45zM49,8H50V9H49zM50,8H51V9H50zM53,8H54V9H53zM54,8H55V9H54zM55,8H56V9H55zM0,9H1V10H0zM1,9H2V10H1zM2,9H3V10H2zM3,9H4V10H3zM7,9H8V10H7zM11,9H12V10H11zM12,9H13V10H12zM15,9H16V10H15zM21,9H22V10H21zM22,9H23V10H22zM23,9H24V10H23zM24,9H25V10H24zM25,9H26V10H25zM28,9H29V10H28zM30,9H31V10H30zM32,9H33V10H32zM33,9H34V10H33zM36,9H37V10H36zM37,9H38V10H37zM41,9H42V10H41zM44,9H45V10H44zM46,9H47V10H46zM47,9H48V10H47zM52,9H53V10H52zM53,9H54V10H53zM54,9H55V10H54zM1,10H2V11H1zM2,10H3V11H2zM3,10H4V11H3zM4,10H5V11H4zM6,10H7V11H6zM7,10H8V11H7zM8,10H9V11H8zM9,10H10V11H9zM10,10H11V11H10zM15,10H16V11H15zM19,10H20V11H19zM22,10H23V11H22zM29,10H30V11H29zM30,10H31V11H30zM31,10H32V11H31zM33,10H34V11H33zM36,10H37V11H36zM39,10H40V11H39zM40,10H41V11H40zM42,10H43V11H42zM43,10H44V11H43zM44,10H45V11H44zM45,10H46V11H45zM50,10H51V11H50zM54,10H55V11H54zM55,10H56V11H55zM56,10H57V11H56zM0,11H1V12H0zM2,11H3V12H2zM4,11H5V12H4zM7,11H8V12H7zM9,11H10V12H9zM10,11H11V12H10zM11,11H12V12H11zM12,11H13V12H12zM13,11H14V12H13zM16,11H17V12H16zM17,11H18V12H17zM18,11H19V12H18zM22,11H23V12H22zM24,11H25V12H24zM25,11H26V12H25zM26,11H27V12H26zM27,11H28V12H27zM30,11H31V12H30zM31,11H32V12H31zM36,11H37V12H36zM37,11H38V12H37zM39,11H40V12H39zM41,11H42V12H41zM43,11H44V12H43zM45,11H46V12H45zM49,11H50V12H49zM50,11H51V12H50zM54,11H55V12H54zM56,11H57V12H56zM3,12H4V13H3zM4,12H5V13H4zM5,12H6V13H5zM6,12H7V13H6zM7,12H8V13H7zM10,12H11V13H10zM12,12H13V13H12zM14,12H15V13H14zM17,12H18V13H17zM20,12H21V13H20zM23,12H24V13H23zM24,12H25V13H24zM25,12H26V13H25zM26,12H27V13H26zM27,12H28V13H27zM28,12H29V13H28zM29,12H30V13H29zM30,12H31V13H30zM31,12H32V13H31zM33,12H34V13H33zM34,12H35V13H34zM35,12H36V13H35zM36,12H37V13H36zM37,12H38V13H37zM38,12H39V13H38zM41,12H42V13H41zM45,12H46V13H45zM46,12H47V13H46zM48,12H49V13H48zM49,12H50V13H49zM50,12H51V13H50zM51,12H52V13H51zM54,12H55V13H54zM55,12H56V13H55zM56,12H57V13H56zM7,13H8V14H7zM9,13H10V14H9zM10,13H11V14H10zM11,13H12V14H11zM12,13H13V14H12zM13,13H14V14H13zM15,13H16V14H15zM17,13H18V14H17zM18,13H19V14H18zM19,13H20V14H19zM23,13H24V14H23zM25,13H26V14H25zM26,13H27V14H26zM27,13H28V14H27zM32,13H33V14H32zM36,13H37V14H36zM40,13H41V14H40zM41,13H42V14H41zM44,13H45V14H44zM45,13H46V14H45zM46,13H47V14H46zM48,13H49V14H48zM50,13H51V14H50zM55,13H56V14H55zM0,14H1V15H0zM3,14H4V15H3zM6,14H7V15H6zM9,14H10V15H9zM10,14H11V15H10zM15,14H16V15H15zM16,14H17V15H16zM20,14H21V15H20zM26,14H27V15H26zM27,14H28V15H27zM30,14H31V15H30zM31,14H32V15H31zM33,14H34V15H33zM37,14H38V15H37zM39,14H40V15H39zM41,14H42V15H41zM42,14H43V15H42zM44,14H45V15H44zM45,14H46V15H45zM48,14H49V15H48zM49,14H50V15H49zM54,14H55V15H54zM55,14H56V15H55zM0,15H1V16H0zM2,15H3V16H2zM3,15H4V16H3zM7,15H8V16H7zM8,15H9V16H8zM11,15H12V16H11zM12,15H13V16H12zM14,15H15V16H14zM16,15H17V16H16zM19,15H20V16H19zM22,15H23V16H22zM23,15H24V16H23zM25,15H26V16H25zM27,15H28V16H27zM28,15H29V16H28zM31,15H32V16H31zM32,15H33V16H32zM35,15H36V16H35zM36,15H37V16H36zM37,15H38V16H37zM38,15H39V16H38zM40,15H41V16H40zM42,15H43V16H42zM43,15H44V16H43zM44,15H45V16H44zM47,15H48V16H47zM48,15H49V16H48zM52,15H53V16H52zM53,15H54V16H53zM2,16H3V17H2zM3,16H4V17H3zM4,16H5V17H4zM6,16H7V17H6zM7,16H8V17H7zM11,16H12V17H11zM12,16H13V17H12zM13,16H14V17H13zM15,16H16V17H15zM17,16H18V17H17zM20,16H21V17H20zM21,16H22V17H21zM22,16H23V17H22zM23,16H24V17H23zM24,16H25V17H24zM28,16H29V17H28zM33,16H34V17H33zM34,16H35V17H34zM36,16H37V17H36zM38,16H39V17H38zM39,16H40V17H39zM42,16H43V17H42zM45,16H46V17H45zM46,16H47V17H46zM50,16H51V17H50zM52,16H53V17H52zM53,16H54V17H53zM54,16H55V17H54zM55,16H56V17H55zM56,16H57V17H56zM0,17H1V18H0zM1,17H2V18H1zM4,17H5V18H4zM5,17H6V18H5zM7,17H8V18H7zM8,17H9V18H8zM9,17H10V18H9zM11,17H12V18H11zM17,17H18V18H17zM21,17H22V18H21zM22,17H23V18H22zM24,17H25V18H24zM25,17H26V18H25zM28,17H29V18H28zM29,17H30V18H29zM32,17H33V18H32zM33,17H34V18H33zM34,17H35V18H34zM37,17H38V18H37zM38,17H39V18H38zM42,17H43V18H42zM44,17H45V18H44zM47,17H48V18H47zM53,17H54V18H53zM54,17H55V18H54zM1,18H2V19H1zM3,18H4V19H3zM6,18H7V19H6zM10,18H11V19H10zM11,18H12V19H11zM12,18H13V19H12zM13,18H14V19H13zM15,18H16V19H15zM16,18H17V19H16zM18,18H19V19H18zM20,18H21V19H20zM21,18H22V19H21zM22,18H23V19H22zM23,18H24V19H23zM25,18H26V19H25zM27,18H28V19H27zM28,18H29V19H28zM29,18H30V19H29zM31,18H32V19H31zM32,18H33V19H32zM33,18H34V19H33zM34,18H35V19H34zM35,18H36V19H35zM38,18H39V19H38zM39,18H40V19H39zM40,18H41V19H40zM41,18H42V19H41zM43,18H44V19H43zM46,18H47V19H46zM47,18H48V19H47zM53,18H54V19H53zM55,18H56V19H55zM0,19H1V20H0zM1,19H2V20H1zM2,19H3V20H2zM5,19H6V20H5zM9,19H10V20H9zM10,19H11V20H10zM11,19H12V20H11zM13,19H14V20H13zM14,19H15V20H14zM15,19H16V20H15zM16,19H17V20H16zM21,19H22V20H21zM22,19H23V20H22zM27,19H28V20H27zM29,19H30V20H29zM34,19H35V20H34zM35,19H36V20H35zM36,19H37V20H36zM38,19H39V20H38zM40,19H41V20H40zM42,19H43V20H42zM43,19H44V20H43zM45,19H46V20H45zM48,19H49V20H48zM49,19H50V20H49zM50,19H51V20H50zM2,20H3V21H2zM3,20H4V21H3zM5,20H6V21H5zM6,20H7V21H6zM7,20H8V21H7zM8,20H9V21H8zM9,20H10V21H9zM13,20H14V21H13zM14,20H15V21H14zM17,20H18V21H17zM20,20H21V21H20zM22,20H23V21H22zM23,20H24V21H23zM24,20H25V21H24zM25,20H26V21H25zM27,20H28V21H27zM28,20H29V21H28zM33,20H34V21H33zM34,20H35V21H34zM35,20H36V21H35zM36,20H37V21H36zM38,20H39V21H38zM42,20H43V21H42zM45,20H46V21H45zM47,20H48V21H47zM50,20H51V21H50zM51,20H52V21H51zM53,20H54V21H53zM54,20H55V21H54zM55,20H56V21H55zM0,21H1V22H0zM2,21H3V22H2zM3,21H4V22H3zM4,21H5V22H4zM7,21H8V22H7zM8,21H9V22H8zM11,21H12V22H11zM14,21H15V22H14zM16,21H17V22H16zM17,21H18V22H17zM19,21H20V22H19zM20,21H21V22H20zM22,21H23V22H22zM23,21H24V22H23zM26,21H27V22H26zM28,21H29V22H28zM29,21H30V22H29zM32,21H33V22H32zM33,21H34V22H33zM34,21H35V22H34zM38,21H39V22H38zM40,21H41V22H40zM41,21H42V22H41zM45,21H46V22H45zM48,21H49V22H48zM49,21H50V22H49zM50,21H51V22H50zM51,21H52V22H51zM52,21H53V22H52zM54,21H55V22H54zM56,21H57V22H56zM0,22H1V23H0zM1,22H2V23H1zM2,22H3V23H2zM4,22H5V23H4zM5,22H6V23H5zM6,22H7V23H6zM8,22H9V23H8zM9,22H10V23H9zM11,22H12V23H11zM12,22H13V23H12zM13,22H14V23H13zM14,22H15V23H14zM15,22H16V23H15zM16,22H17V23H16zM19,22H20V23H19zM20,22H21V23H20zM30,22H31V23H30zM33,22H34V23H33zM34,22H35V23H34zM37,22H38V23H37zM39,22H40V23H39zM42,22H43V23H42zM44,22H45V23H44zM45,22H46V23H45zM48,22H49V23H48zM52,22H53V23H52zM53,22H54V23H53zM56,22H57V23H56zM0,23H1V24H0zM1,23H2V24H1zM2,23H3V24H2zM5,23H6V24H5zM7,23H8V24H7zM9,23H10V24H9zM10,23H11V24H10zM13,23H14V24H13zM14,23H15V24H14zM18,23H19V24H18zM19,23H20V24H19zM20,23H21V24H20zM22,23H23V24H22zM23,23H24V24H23zM25,23H26V24H25zM28,23H29V24H28zM30,23H31V24H30zM33,23H34V24H33zM40,23H41V24H40zM46,23H47V24H46zM48,23H49V24H48zM49,23H50V24H49zM51,23H52V24H51zM53,23H54V24H53zM54,23H55V24H54zM0,24H1V25H0zM1,24H2V25H1zM3,24H4V25H3zM5,24H6V25H5zM6,24H7V25H6zM7,24H8V25H7zM11,24H12V25H11zM12,24H13V25H12zM14,24H15V25H14zM16,24H17V25H16zM18,24H19V25H18zM20,24H21V25H20zM22,24H23V25H22zM23,24H24V25H23zM25,24H26V25H25zM26,24H27V25H26zM28,24H29V25H28zM30,24H31V25H30zM33,24H34V25H33zM37,24H38V25H37zM38,24H39V25H38zM41,24H42V25H41zM43,24H44V25H43zM44,24H45V25H44zM45,24H46V25H45zM48,24H49V25H48zM49,24H50V25H49zM51,24H52V25H51zM54,24H55V25H54zM55,24H56V25H55zM56,24H57V25H56zM1,25H2V26H1zM2,25H3V26H2zM4,25H5V26H4zM7,25H8V26H7zM9,25H10V26H9zM10,25H11V26H10zM11,25H12V26H11zM12,25H13V26H12zM17,25H18V26H17zM20,25H21V26H20zM22,25H23V26H22zM23,25H24V26H23zM26,25H27V26H26zM29,25H30V26H29zM30,25H31V26H30zM32,25H33V26H32zM33,25H34V26H33zM34,25H35V26H34zM36,25H37V26H36zM40,25H41V26H40zM42,25H43V26H42zM43,25H44V26H43zM48,25H49V26H48zM50,25H51V26H50zM53,25H54V26H53zM54,25H55V26H54zM55,25H56V26H55zM1,26H2V27H1zM2,26H3V27H2zM3,26H4V27H3zM4,26H5V27H4zM5,26H6V27H5zM6,26H7V27H6zM7,26H8V27H7zM8,26H9V27H8zM11,26H12V27H11zM12,26H13V27H12zM13,26H14V27H13zM14,26H15V27H14zM18,26H19V27H18zM19,26H20V27H19zM20,26H21V27H20zM21,26H22V27H21zM22,26H23V27H22zM25,26H26V27H25zM26,26H27V27H26zM27,26H28V27H27zM28,26H29V27H28zM29,26H30V27H29zM30,26H31V27H30zM31,26H32V27H31zM32,26H33V27H32zM33,26H34V27H33zM34,26H35V27H34zM39,26H40V27H39zM41,26H42V27H41zM42,26H43V27H42zM43,26H44V27H43zM44,26H45V27H44zM48,26H49V27H48zM49,26H50V27H49zM50,26H51V27H50zM51,26H52V27H51zM52,26H53V27H52zM54,26H55V27H54zM2,27H3V28H2zM4,27H5V28H4zM8,27H9V28H8zM9,27H10V28H9zM11,27H12V28H11zM15,27H16V28H15zM21,27H22V28H21zM24,27H25V28H24zM26,27H27V28H26zM30,27H31V28H30zM31,27H32V28H31zM34,27H35V28H34zM36,27H37V28H36zM37,27H38V28H37zM39,27H40V28H39zM40,27H41V28H40zM45,27H46V28H45zM47,27H48V28H47zM48,27H49V28H48zM52,27H53V28H52zM53,27H54V28H53zM0,28H1V29H0zM4,28H5V29H4zM6,28H7V29H6zM8,28H9V29H8zM9,28H10V29H9zM13,28H14V29H13zM16,28H17V29H16zM17,28H18V29H17zM20,28H21V29H20zM21,28H22V29H21zM23,28H24V29H23zM26,28H27V29H26zM28,28H29V29H28zM30,28H31V29H30zM31,28H32V29H31zM32,28H33V29H32zM36,28H37V29H36zM38,28H39V29H38zM39,28H40V29H39zM42,28H43V29H42zM43,28H44V29H43zM44,28H45V29H44zM48,28H49V29H48zM50,28H51V29H50zM52,28H53V29H52zM53,28H54V29H53zM54,28H55V29H54zM56,28H57V29H56zM1,29H2V30H1zM3,29H4V30H3zM4,29H5V30H4zM8,29H9V30H8zM9,29H10V30H9zM10,29H11V30H10zM12,29H13V30H12zM13,29H14V30H13zM17,29H18V30H17zM18,29H19V30H18zM21,29H22V30H21zM23,29H24V30H23zM26,29H27V30H26zM30,29H31V30H30zM36,29H37V30H36zM37,29H38V30H37zM41,29H42V30H41zM42,29H43V30H42zM47,29H48V30H47zM48,29H49V30H48zM52,29H53V30H52zM1,30H2V31H1zM4,30H5V31H4zM5,30H6V31H5zM6,30H7V31H6zM7,30H8V31H7zM8,30H9V31H8zM11,30H12V31H11zM12,30H13V31H12zM14,30H15V31H14zM17,30H18V31H17zM19,30H20V31H19zM20,30H21V31H20zM21,30H22V31H21zM22,30H23V31H22zM23,30H24V31H23zM25,30H26V31H25zM26,30H27V31H26zM27,30H28V31H27zM28,30H29V31H28zM29,30H30V31H29zM30,30H31V31H30zM31,30H32V31H31zM34,30H35V31H34zM35,30H36V31H35zM36,30H37V31H36zM37,30H38V31H37zM38,30H39V31H38zM40,30H41V31H40zM41,30H42V31H41zM42,30H43V31H42zM45,30H46V31H45zM46,30H47V31H46zM47,30H48V31H47zM48,30H49V31H48zM49,30H50V31H49zM50,30H51V31H50zM51,30H52V31H51zM52,30H53V31H52zM53,30H54V31H53zM0,31H1V32H0zM2,31H3V32H2zM4,31H5V32H4zM5,31H6V32H5zM8,31H9V32H8zM9,31H10V32H9zM10,31H11V32H10zM12,31H13V32H12zM13,31H14V32H13zM14,31H15V32H14zM15,31H16V32H15zM16,31H17V32H16zM18,31H19V32H18zM19,31H20V32H19zM22,31H23V32H22zM25,31H26V32H25zM26,31H27V32H26zM30,31H31V32H30zM36,31H37V32H36zM38,31H39V32H38zM39,31H40V32H39zM42,31H43V32H42zM44,31H45V32H44zM49,31H50V32H49zM51,31H52V32H51zM54,31H55V32H54zM1,32H2V33H1zM2,32H3V33H2zM3,32H4V33H3zM4,32H5V33H4zM5,32H6V33H5zM6,32H7V33H6zM7,32H8V33H7zM12,32H13V33H12zM16,32H17V33H16zM17,32H18V33H17zM22,32H23V33H22zM23,32H24V33H23zM24,32H25V33H24zM29,32H30V33H29zM30,32H31V33H30zM32,32H33V33H32zM33,32H34V33H33zM38,32H39V33H38zM40,32H41V33H40zM43,32H44V33H43zM44,32H45V33H44zM45,32H46V33H45zM46,32H47V33H46zM47,32H48V33H47zM48,32H49V33H48zM50,32H51V33H50zM53,32H54V33H53zM54,32H55V33H54zM0,33H1V34H0zM4,33H5V34H4zM5,33H6V34H5zM8,33H9V34H8zM9,33H10V34H9zM10,33H11V34H10zM11,33H12V34H11zM13,33H14V34H13zM14,33H15V34H14zM16,33H17V34H16zM17,33H18V34H17zM18,33H19V34H18zM20,33H21V34H20zM21,33H22V34H21zM22,33H23V34H22zM24,33H25V34H24zM26,33H27V34H26zM28,33H29V34H28zM30,33H31V34H30zM32,33H33V34H32zM34,33H35V34H34zM36,33H37V34H36zM38,33H39V34H38zM41,33H42V34H41zM45,33H46V34H45zM48,33H49V34H48zM52,33H53V34H52zM53,33H54V34H53zM56,33H57V34H56zM0,34H1V35H0zM3,34H4V35H3zM6,34H7V35H6zM7,34H8V35H7zM9,34H10V35H9zM13,34H14V35H13zM14,34H15V35H14zM19,34H20V35H19zM20,34H21V35H20zM21,34H22V35H21zM23,34H24V35H23zM24,34H25V35H24zM27,34H28V35H27zM28,34H29V35H28zM29,34H30V35H29zM30,34H31V35H30zM31,34H32V35H31zM33,34H34V35H33zM36,34H37V35H36zM37,34H38V35H37zM42,34H43V35H42zM43,34H44V35H43zM44,34H45V35H44zM45,34H46V35H45zM47,34H48V35H47zM49,34H50V35H49zM50,34H51V35H50zM51,34H52V35H51zM52,34H53V35H52zM0,35H1V36H0zM4,35H5V36H4zM8,35H9V36H8zM10,35H11V36H10zM11,35H12V36H11zM12,35H13V36H12zM13,35H14V36H13zM14,35H15V36H14zM15,35H16V36H15zM19,35H20V36H19zM22,35H23V36H22zM24,35H25V36H24zM26,35H27V36H26zM28,35H29V36H28zM32,35H33V36H32zM34,35H35V36H34zM35,35H36V36H35zM36,35H37V36H36zM43,35H44V36H43zM45,35H46V36H45zM48,35H49V36H48zM49,35H50V36H49zM52,35H53V36H52zM53,35H54V36H53zM1,36H2V37H1zM4,36H5V37H4zM6,36H7V37H6zM8,36H9V37H8zM10,36H11V37H10zM13,36H14V37H13zM16,36H17V37H16zM17,36H18V37H17zM18,36H19V37H18zM20,36H21V37H20zM21,36H22V37H21zM24,36H25V37H24zM25,36H26V37H25zM26,36H27V37H26zM27,36H28V37H27zM28,36H29V37H28zM32,36H33V37H32zM33,36H34V37H33zM35,36H36V37H35zM36,36H37V37H36zM37,36H38V37H37zM39,36H40V37H39zM41,36H42V37H41zM43,36H44V37H43zM44,36H45V37H44zM45,36H46V37H45zM46,36H47V37H46zM47,36H48V37H47zM48,36H49V37H48zM52,36H53V37H52zM53,36H54V37H53zM54,36H55V37H54zM55,36H56V37H55zM56,36H57V37H56zM0,37H1V38H0zM4,37H5V38H4zM7,37H8V38H7zM11,37H12V38H11zM17,37H18V38H17zM19,37H20V38H19zM21,37H22V38H21zM22,37H23V38H22zM24,37H25V38H24zM26,37H27V38H26zM27,37H28V38H27zM28,37H29V38H28zM30,37H31V38H30zM33,37H34V38H33zM34,37H35V38H34zM37,37H38V38H37zM38,37H39V38H38zM47,37H48V38H47zM48,37H49V38H48zM50,37H51V38H50zM54,37H55V38H54zM55,37H56V38H55zM1,38H2V39H1zM2,38H3V39H2zM5,38H6V39H5zM6,38H7V39H6zM7,38H8V39H7zM9,38H10V39H9zM11,38H12V39H11zM15,38H16V39H15zM16,38H17V39H16zM17,38H18V39H17zM18,38H19V39H18zM19,38H20V39H19zM20,38H21V39H20zM24,38H25V39H24zM27,38H28V39H27zM28,38H29V39H28zM30,38H31V39H30zM33,38H34V39H33zM34,38H35V39H34zM35,38H36V39H35zM37,38H38V39H37zM39,38H40V39H39zM40,38H41V39H40zM42,38H43V39H42zM43,38H44V39H43zM47,38H48V39H47zM48,38H49V39H48zM50,38H51V39H50zM51,38H52V39H51zM52,38H53V39H52zM54,38H55V39H54zM0,39H1V40H0zM2,39H3V40H2zM3,39H4V40H3zM4,39H5V40H4zM5,39H6V40H5zM7,39H8V40H7zM8,39H9V40H8zM11,39H12V40H11zM12,39H13V40H12zM13,39H14V40H13zM14,39H15V40H14zM15,39H16V40H15zM16,39H17V40H16zM17,39H18V40H17zM19,39H20V40H19zM21,39H22V40H21zM23,39H24V40H23zM24,39H25V40H24zM25,39H26V40H25zM27,39H28V40H27zM29,39H30V40H29zM30,39H31V40H30zM32,39H33V40H32zM34,39H35V40H34zM37,39H38V40H37zM38,39H39V40H38zM40,39H41V40H40zM42,39H43V40H42zM43,39H44V40H43zM44,39H45V40H44zM45,39H46V40H45zM49,39H50V40H49zM50,39H51V40H50zM54,39H55V40H54zM0,40H1V41H0zM1,40H2V41H1zM2,40H3V41H2zM4,40H5V41H4zM5,40H6V41H5zM6,40H7V41H6zM9,40H10V41H9zM11,40H12V41H11zM16,40H17V41H16zM17,40H18V41H17zM18,40H19V41H18zM21,40H22V41H21zM22,40H23V41H22zM23,40H24V41H23zM24,40H25V41H24zM25,40H26V41H25zM27,40H28V41H27zM29,40H30V41H29zM30,40H31V41H30zM33,40H34V41H33zM35,40H36V41H35zM36,40H37V41H36zM45,40H46V41H45zM46,40H47V41H46zM47,40H48V41H47zM48,40H49V41H48zM53,40H54V41H53zM54,40H55V41H54zM56,40H57V41H56zM0,41H1V42H0zM2,41H3V42H2zM3,41H4V42H3zM5,41H6V42H5zM7,41H8V42H7zM8,41H9V42H8zM10,41H11V42H10zM12,41H13V42H12zM15,41H16V42H15zM16,41H17V42H16zM18,41H19V42H18zM20,41H21V42H20zM21,41H22V42H21zM22,41H23V42H22zM23,41H24V42H23zM27,41H28V42H27zM28,41H29V42H28zM30,41H31V42H30zM38,41H39V42H38zM40,41H41V42H40zM41,41H42V42H41zM44,41H45V42H44zM45,41H46V42H45zM46,41H47V42H46zM47,41H48V42H47zM51,41H52V42H51zM52,41H53V42H52zM54,41H55V42H54zM1,42H2V43H1zM2,42H3V43H2zM5,42H6V43H5zM6,42H7V43H6zM10,42H11V43H10zM11,42H12V43H11zM12,42H13V43H12zM13,42H14V43H13zM20,42H21V43H20zM21,42H22V43H21zM22,42H23V43H22zM23,42H24V43H23zM24,42H25V43H24zM25,42H26V43H25zM26,42H27V43H26zM27,42H28V43H27zM28,42H29V43H28zM31,42H32V43H31zM32,42H33V43H32zM34,42H35V43H34zM35,42H36V43H35zM36,42H37V43H36zM37,42H38V43H37zM38,42H39V43H38zM39,42H40V43H39zM41,42H42V43H41zM43,42H44V43H43zM45,42H46V43H45zM49,42H50V43H49zM50,42H51V43H50zM51,42H52V43H51zM53,42H54V43H53zM54,42H55V43H54zM56,42H57V43H56zM7,43H8V44H7zM9,43H10V44H9zM12,43H13V44H12zM15,43H16V44H15zM19,43H20V44H19zM23,43H24V44H23zM24,43H25V44H24zM26,43H27V44H26zM28,43H29V44H28zM29,43H30V44H29zM30,43H31V44H30zM31,43H32V44H31zM33,43H34V44H33zM34,43H35V44H34zM41,43H42V44H41zM42,43H43V44H42zM45,43H46V44H45zM47,43H48V44H47zM48,43H49V44H48zM49,43H50V44H49zM50,43H51V44H50zM53,43H54V44H53zM54,43H55V44H54zM1,44H2V45H1zM2,44H3V45H2zM4,44H5V45H4zM5,44H6V45H5zM6,44H7V45H6zM7,44H8V45H7zM11,44H12V45H11zM12,44H13V45H12zM13,44H14V45H13zM17,44H18V45H17zM18,44H19V45H18zM20,44H21V45H20zM22,44H23V45H22zM23,44H24V45H23zM24,44H25V45H24zM30,44H31V45H30zM33,44H34V45H33zM34,44H35V45H34zM35,44H36V45H35zM40,44H41V45H40zM42,44H43V45H42zM45,44H46V45H45zM48,44H49V45H48zM51,44H52V45H51zM54,44H55V45H54zM55,44H56V45H55zM56,44H57V45H56zM2,45H3V46H2zM7,45H8V46H7zM17,45H18V46H17zM18,45H19V46H18zM19,45H20V46H19zM22,45H23V46H22zM23,45H24V46H23zM25,45H26V46H25zM26,45H27V46H26zM28,45H29V46H28zM29,45H30V46H29zM30,45H31V46H30zM31,45H32V46H31zM32,45H33V46H32zM33,45H34V46H33zM38,45H39V46H38zM40,45H41V46H40zM42,45H43V46H42zM43,45H44V46H43zM44,45H45V46H44zM47,45H48V46H47zM48,45H49V46H48zM50,45H51V46H50zM52,45H53V46H52zM53,45H54V46H53zM54,45H55V46H54zM55,45H56V46H55zM56,45H57V46H56zM0,46H1V47H0zM2,46H3V47H2zM5,46H6V47H5zM6,46H7V47H6zM7,46H8V47H7zM11,46H12V47H11zM12,46H13V47H12zM14,46H15V47H14zM17,46H18V47H17zM18,46H19V47H18zM21,46H22V47H21zM22,46H23V47H22zM27,46H28V47H27zM28,46H29V47H28zM30,46H31V47H30zM35,46H36V47H35zM36,46H37V47H36zM39,46H40V47H39zM41,46H42V47H41zM42,46H43V47H42zM50,46H51V47H50zM52,46H53V47H52zM0,47H1V48H0zM1,47H2V48H1zM2,47H3V48H2zM3,47H4V48H3zM4,47H5V48H4zM8,47H9V48H8zM9,47H10V48H9zM13,47H14V48H13zM16,47H17V48H16zM18,47H19V48H18zM19,47H20V48H19zM21,47H22V48H21zM23,47H24V48H23zM24,47H25V48H24zM28,47H29V48H28zM29,47H30V48H29zM30,47H31V48H30zM32,47H33V48H32zM33,47H34V48H33zM34,47H35V48H34zM36,47H37V48H36zM39,47H40V48H39zM42,47H43V48H42zM43,47H44V48H43zM46,47H47V48H46zM48,47H49V48H48zM53,47H54V48H53zM56,47H57V48H56zM6,48H7V49H6zM7,48H8V49H7zM12,48H13V49H12zM24,48H25V49H24zM26,48H27V49H26zM27,48H28V49H27zM28,48H29V49H28zM29,48H30V49H29zM30,48H31V49H30zM33,48H34V49H33zM35,48H36V49H35zM36,48H37V49H36zM37,48H38V49H37zM38,48H39V49H38zM39,48H40V49H39zM40,48H41V49H40zM41,48H42V49H41zM42,48H43V49H42zM45,48H46V49H45zM47,48H48V49H47zM48,48H49V49H48zM49,48H50V49H49zM50,48H51V49H50zM51,48H52V49H51zM52,48H53V49H52zM54,48H55V49H54zM55,48H56V49H55zM56,48H57V49H56zM8,49H9V50H8zM9,49H10V50H9zM12,49H13V50H12zM14,49H15V50H14zM15,49H16V50H15zM16,49H17V50H16zM17,49H18V50H17zM19,49H20V50H19zM20,49H21V50H20zM21,49H22V50H21zM26,49H27V50H26zM30,49H31V50H30zM32,49H33V50H32zM33,49H34V50H33zM34,49H35V50H34zM36,49H37V50H36zM38,49H39V50H38zM40,49H41V50H40zM44,49H45V50H44zM48,49H49V50H48zM52,49H53V50H52zM53,49H54V50H53zM54,49H55V50H54zM56,49H57V50H56zM0,50H1V51H0zM1,50H2V51H1zM2,50H3V51H2zM3,50H4V51H3zM4,50H5V51H4zM5,50H6V51H5zM6,50H7V51H6zM12,50H13V51H12zM13,50H14V51H13zM14,50H15V51H14zM15,50H16V51H15zM24,50H25V51H24zM26,50H27V51H26zM28,50H29V51H28zM30,50H31V51H30zM33,50H34V51H33zM36,50H37V51H36zM38,50H39V51H38zM39,50H40V51H39zM40,50H41V51H40zM46,50H47V51H46zM48,50H49V51H48zM50,50H51V51H50zM52,50H53V51H52zM54,50H55V51H54zM56,50H57V51H56zM0,51H1V52H0zM6,51H7V52H6zM9,51H10V52H9zM12,51H13V52H12zM15,51H16V52H15zM16,51H17V52H16zM17,51H18V52H17zM19,51H20V52H19zM23,51H24V52H23zM24,51H25V52H24zM25,51H26V52H25zM26,51H27V52H26zM30,51H31V52H30zM31,51H32V52H31zM32,51H33V52H32zM34,51H35V52H34zM37,51H38V52H37zM38,51H39V52H38zM39,51H40V52H39zM40,51H41V52H40zM41,51H42V52H41zM42,51H43V52H42zM43,51H44V52H43zM44,51H45V52H44zM45,51H46V52H45zM47,51H48V52H47zM48,51H49V52H48zM52,51H53V52H52zM54,51H55V52H54zM56,51H57V52H56zM0,52H1V53H0zM2,52H3V53H2zM3,52H4V53H3zM4,52H5V53H4zM6,52H7V53H6zM9,52H10V53H9zM10,52H11V53H10zM11,52H12V53H11zM12,52H13V53H12zM14,52H15V53H14zM19,52H20V53H19zM20,52H21V53H20zM21,52H22V53H21zM22,52H23V53H22zM24,52H25V53H24zM26,52H27V53H26zM27,52H28V53H27zM28,52H29V53H28zM29,52H30V53H29zM30,52H31V53H30zM33,52H34V53H33zM40,52H41V53H40zM43,52H44V53H43zM44,52H45V53H44zM45,52H46V53H45zM46,52H47V53H46zM47,52H48V53H47zM48,52H49V53H48zM49,52H50V53H49zM50,52H51V53H50zM51,52H52V53H51zM52,52H53V53H52zM53,52H54V53H53zM54,52H55V53H54zM0,53H1V54H0zM2,53H3V54H2zM3,53H4V54H3zM4,53H5V54H4zM6,53H7V54H6zM9,53H10V54H9zM14,53H15V54H14zM15,53H16V54H15zM16,53H17V54H16zM17,53H18V54H17zM21,53H22V54H21zM23,53H24V54H23zM25,53H26V54H25zM28,53H29V54H28zM29,53H30V54H29zM30,53H31V54H30zM32,53H33V54H32zM37,53H38V54H37zM41,53H42V54H41zM45,53H46V54H45zM46,53H47V54H46zM48,53H49V54H48zM51,53H52V54H51zM0,54H1V55H0zM2,54H3V55H2zM3,54H4V55H3zM4,54H5V55H4zM6,54H7V55H6zM9,54H10V55H9zM13,54H14V55H13zM14,54H15V55H14zM18,54H19V55H18zM21,54H22V55H21zM23,54H24V55H23zM25,54H26V55H25zM28,54H29V55H28zM29,54H30V55H29zM31,54H32V55H31zM33,54H34V55H33zM34,54H35V55H34zM35,54H36V55H35zM37,54H38V55H37zM40,54H41V55H40zM41,54H42V55H41zM42,54H43V55H42zM44,54H45V55H44zM45,54H46V55H45zM46,54H47V55H46zM49,54H50V55H49zM50,54H51V55H50zM51,54H52V55H51zM52,54H53V55H52zM53,54H54V55H53zM55,54H56V55H55zM56,54H57V55H56zM0,55H1V56H0zM6,55H7V56H6zM12,55H13V56H12zM13,55H14V56H13zM14,55H15V56H14zM19,55H20V56H19zM23,55H24V56H23zM26,55H27V56H26zM28,55H29V56H28zM30,55H31V56H30zM34,55H35V56H34zM36,55H37V56H36zM37,55H38V56H37zM38,55H39V56H38zM43,55H44V56H43zM46,55H47V56H46zM48,55H49V56H48zM52,55H53V56H52zM54,55H55V56H54zM0,56H1V57H0zM1,56H2V57H1zM2,56H3V57H2zM3,56H4V57H3zM4,56H5V57H4zM5,56H6V57H5zM6,56H7V57H6zM8,56H9V57H8zM9,56H10V57H9zM10,56H11V57H10zM14,56H15V57H14zM17,56H18V57H17zM18,56H19V57H18zM20,56H21V57H20zM23,56H24V57H23zM24,56H25V57H24zM27,56H28V57H27zM29,56H30V57H29zM30,56H31V57H30zM31,56H32V57H31zM33,56H34V57H33zM35,56H36V57H35zM41,56H42V57H41zM45,56H46V57H45zM46,56H47V57H46zM47,56H48V57H47zM49,56H50V57H49zM51,56H52V57H51zM52,56H53V57H52zM53,56H54V57H53zM54,56H55V57H54zM55,56H56V57H55z" style="fill:#000000;fill-opacity:1;fill-rule:nonzero;stroke:none" transform="translate(237.40157,61) scale(2.847078245614035)" /><g id="swiss-cross" transform="translate(305.4890105263158,129.0874405263158) scale(1.305428947368421)"><polygon fill="black" points="18.3,0.7 1.6,0.7 0.7,0.7 0.7,1.6 0.7,18.3 0.7,19.1 1.6,19.1 18.3,19.1 19.1,19.1 19.1,18.3 19.1,1.6 19.1,0.7" /><rect fill="white" height="11" width="3.3" x="8.3" y="4" /><rect fill="white" height="3.3" width="11" x="4.4" y="7.9" /><polygon fill="none" points="0.7,1.6 0.7,18.3 0.7,19.1 1.6,19.1 18.3,19.1 19.1,19.1 19.1,18.3 19.1,1.6 19.1,0.7 18.3,0.7 1.6,0.7 0.7,0.7" stroke="white" stroke-width="1.4357" /></g><text font-family="Arial,Helvetica" font-size="9" font-weight="bold" x="237.40157" y="258.66141">Currency</text><text font-family="Arial,Helvetica" font-size="9" font-weight="bold" x="279.92125" y="258.66141">Amount</text><text font-family="Arial,Helvetica" font-size="10" x="237.40157" y="276.37795">CHF</text><text font-family="Arial,Helvetica" font-size="10" x="279.92125" y="276.37795">15.50</text><text font-family="Arial,Helvetica" font-size="9" font-weight="bold" x="418.11023" y="38.97638">Account / Payable to</text><text font-family="Arial,Helvetica" font-size="10" x="418.11023" y="51.37795">CH62 0900 0000 0000 0000 0</text><text font-family="Arial,Helvetica" font-size="10" x="418.11023" y="63.77953">My Parking Garage</text><text font-family="Arial,Helvetica" font-size="10" x="418.11023" y="76.1811">Parking Street 1</text><text font-family="Arial,Helvetica" font-size="10" x="418.11023" y="88.58267">1000 City</text><text font-family="Arial,Helvetica" font-size="9" font-weight="bold" x="418.11023" y="111.61417">Additional information</text><text font-family="Arial,Helvetica" font-size="10" x="418.11023" y="124.01574">Invoice 1</text><text font-family="Arial,Helvetica" font-size="9" font-weight="bold" x="418.11023" y="147.04724">Payable by</text><text font-family="Arial,Helvetica" font-size="10" x="418.11023" y="159.44881">John Doe</text><text font-family="Arial,Helvetica" font-size="10" x="418.11023" y="171.85039">Underground Parking</text><text font-family="Arial,Helvetica" font-size="10" x="418.11023" y="184.25196">Switzerland</text></g></svg>